# xmcd
# Track frame offsets:
# 150
# 13771
# 29247
# 47051
# 63520
# 83459
# 96290
# 116738
# 136146
# 152051
# 165464
#
# Disc length: 2478 seconds
# Revision: 0
# Processed by: cddbd v1.5.2PL0 Copyright (c) Steve Scherf et al.
# Submitted via: VisiTrax 2.10.0.248 - For more info visit www.synapsa.com
#
DISCID=8b09ac0b
DTITLE=Allan, Gary - See If I Care
DYEAR=2003
DGENRE=
TTITLE0=Drinkin' Dark Whiskey
TTITLE1=Can't Do It Today
TTITLE2=Tough Little Boys
TTITLE3=See If I Care
TTITLE4=Songs About Rain
TTITLE5=I Can Love You
TTITLE6=A Showman's Life
TTITLE7=You Don't Know a Thing About Me
TTITLE8=Nothing on But the Radio
TTITLE9=Guys Like Me
TTITLE10=Don't Look Away
EXTD=
EXTT0=
EXTT1=
EXTT2=
EXTT3=
EXTT4=
EXTT5=
EXTT6=
EXTT7=
EXTT8=
EXTT9=
EXTT10=
PLAYORDER=
